<?xml version="1.0" encoding="UTF-8"?>
<svg width="700pt" height="700pt" version="1.1" viewBox="0 0 700 700" xmlns="http://www.w3.org/2000/svg">
 <path d="m382.9 280 147-146.77c5.9219-5.918 8.2305-14.547 6.0664-22.633-2.168-8.082-8.4844-14.398-16.566-16.566-8.0859-2.1641-16.715 0.14453-22.633 6.0664l-146.77 147-146.77-147c-5.918-5.9219-14.547-8.2305-22.633-6.0664-8.082 2.168-14.398 8.4844-16.566 16.566-2.1641 8.0859 0.14453 16.715 6.0664 22.633l147 146.77-147 146.77c-4.418 4.3828-6.9023 10.348-6.9023 16.566 0 6.2227 2.4844 12.188 6.9023 16.566 4.3789 4.418 10.344 6.9023 16.566 6.9023 6.2188 0 12.184-2.4844 16.566-6.9023l146.77-147 146.77 147c4.3828 4.418 10.348 6.9023 16.566 6.9023 6.2227 0 12.188-2.4844 16.566-6.9023 4.418-4.3789 6.9023-10.344 6.9023-16.566 0-6.2188-2.4844-12.184-6.9023-16.566z"/>
</svg>
